<?xml version="1.0" encoding="UTF-8" standalone="no"?>
<!-- Created with Inkscape (http://www.inkscape.org/) -->

<svg
   xmlns:dc="http://purl.org/dc/elements/1.1/"
   xmlns:cc="http://creativecommons.org/ns#"
   xmlns:rdf="http://www.w3.org/1999/02/22-rdf-syntax-ns#"
   xmlns:svg="http://www.w3.org/2000/svg"
   xmlns="http://www.w3.org/2000/svg"
   xmlns:sodipodi="http://sodipodi.sourceforge.net/DTD/sodipodi-0.dtd"
   xmlns:inkscape="http://www.inkscape.org/namespaces/inkscape"
   version="1.1"
   id="svg2"
   width="240"
   height="72"
   viewBox="0 0 240 72"
   sodipodi:docname="footer-logo.svg"
   inkscape:version="0.92.4 (5da689c313, 2019-01-14)">
  <metadata
     id="metadata8">
    <rdf:RDF>
      <cc:Work
         rdf:about="">
        <dc:format>image/svg+xml</dc:format>
        <dc:type
           rdf:resource="http://purl.org/dc/dcmitype/StillImage" />
        <dc:title></dc:title>
      </cc:Work>
    </rdf:RDF>
  </metadata>
  <defs
     id="defs6" />
  <sodipodi:namedview
     pagecolor="#ffffff"
     bordercolor="#666666"
     borderopacity="1"
     objecttolerance="10"
     gridtolerance="10"
     guidetolerance="10"
     inkscape:pageopacity="0"
     inkscape:pageshadow="2"
     inkscape:window-width="1920"
     inkscape:window-height="1017"
     id="namedview4"
     showgrid="false"
     inkscape:zoom="1.1833333"
     inkscape:cx="-142.12829"
     inkscape:cy="218.55856"
     inkscape:window-x="1912"
     inkscape:window-y="-8"
     inkscape:window-maximized="1"
     inkscape:current-layer="svg2" />
  <path
     style="fill:#000000;stroke-width:0.49017662"
     d="m 26.236749,71.593285 c 0,-0.301574 0.606594,-0.683839 1.347987,-0.849481 4.074406,-0.910289 6.985016,-1.864585 6.985016,-2.290167 0,-0.275507 -0.473471,-0.335457 -1.102898,-0.139651 -0.606594,0.188704 -2.316084,0.425027 -3.79887,0.525161 l -2.69597,0.182062 2.450883,-0.441052 c 2.299316,-0.413773 8.28577,-2.911345 7.900849,-3.296267 -0.0966,-0.0966 -1.362374,0.320915 -2.81281,0.927832 -2.247657,0.940507 -3.54212,1.106048 -8.764363,1.120862 -5.615626,0.01593 -6.357218,-0.09047 -8.882004,-1.274318 C 11.090612,63.350925 7.458901,58.458009 7.4541995,53.379934 7.4484426,47.218471 12.544837,42.68809 19.662094,42.527741 c 8.189768,-0.184512 14.120876,5.162367 12.481175,11.251749 -0.662291,2.459555 -2.206162,3.837716 -5.000756,4.463999 -2.724305,0.61053 -4.897512,0.03156 -6.917908,-1.842975 -1.177331,-1.092349 -1.251645,-1.315724 -0.565477,-1.699718 0.499514,-0.279548 0.988892,-0.243191 1.330952,0.09887 0.681312,0.681305 3.537908,0.702958 4.783643,0.03627 0.518681,-0.27759 1.276209,-1.148955 1.683394,-1.936364 2.141573,-4.141342 -1.132862,-8.337185 -6.509294,-8.340986 -8.800569,-0.0062 -12.3690503,10.027443 -5.927079,16.665454 2.714021,2.79661 5.696489,4.00338 10.613323,4.294374 3.566653,0.211084 4.503337,0.07605 7.79179,-1.123318 6.707557,-2.446387 11.041698,-8.275778 11.02608,-14.83002 C 44.43336,41.773204 40.67974,38.622065 29.177809,36.742597 16.122479,34.609299 13.295964,33.774009 10.584536,31.247933 8.7329096,29.522878 7.6349776,26.487839 7.5968419,22.988982 l -0.034707,-3.18615 -1.2544639,3.18615 c -5.90383929,14.994836 -4.177256,30.047763 4.555173,39.713521 0.961045,1.063764 3.736764,3.07256 6.168261,4.463999 3.142565,1.798351 4.219361,2.642679 3.723905,2.919954 -0.383353,0.21453 -1.506283,0.20754 -2.495402,-0.01554 C 10.040518,68.217205 2.820331,57.007597 1.1943076,43.576399 L 0.80858194,40.39025 0.99073219,44.311664 C 1.3160333,51.314995 3.8535102,58.375615 7.9491264,63.673641 L 9.6543088,65.879436 7.6258451,63.703865 C 5.141155,61.038977 2.5502585,55.773454 1.1900227,50.624238 -0.01648881,46.056931 -0.38866988,34.896883 0.62480029,33.675724 0.94992491,33.283975 1.3403803,32.09782 1.4924822,31.039822 1.9471011,27.877571 3.6838846,22.48094 5.4335891,18.793787 10.104796,8.9501652 19.319813,1.7594458 29.08786,0.33573752 c 3.246632,-0.473202 4.301895,-0.43126675 7.149968,0.28415086 6.858933,1.72290692 11.359386,5.13994252 16.000525,12.14863862 3.887842,5.87111 5.412365,11.445917 5.408007,19.775714 -0.0044,7.9834 -1.376732,13.741002 -4.995724,20.956123 -4.162238,8.298175 -10.140288,13.911834 -17.942061,16.848419 -3.622469,1.363491 -8.471805,2.075862 -8.471805,1.244502 z M 51.246187,46.082937 c 0.811639,-2.558359 1.728136,-6.705595 2.036659,-9.216082 C 54.581294,26.301193 51.19538,15.344969 44.754728,9.2713339 l -2.097062,-1.9775695 -0.9486,1.2987328 c -1.644964,2.2521368 -3.063353,3.4503338 -5.454877,4.6080478 -2.994821,1.449765 -5.967782,1.711143 -11.058289,0.972232 -9.40201,-1.364756 -10.431523,-1.23404 -13.143479,1.66878 -1.570768,1.681321 -1.999968,6.231839 -0.80562,8.54145 1.757533,3.398692 5.41096,4.737262 17.678326,6.477109 4.039781,0.572951 8.341082,1.378729 9.558444,1.790617 3.702818,1.25283 7.05851,3.79508 8.496266,6.436717 1.53958,2.828708 2.398491,8.008409 1.77411,10.698791 -1.130376,4.870625 0.57706,2.333493 2.49224,-3.703304 z M 10.617359,12.31729 C 11.685367,10.89621 13.9823,8.6151391 15.721647,7.2482375 19.348401,4.3980807 19.891982,3.6217342 16.74468,5.787134 13.228776,8.2061399 8.5077314,13.715063 6.5071398,17.733196 4.0605169,22.647166 4.1719921,23.194304 6.6791424,18.577392 7.777153,16.555412 9.5493471,13.738367 10.617359,12.31729 Z m 8.84644,-2.6575166 c 2.114163,-0.4434472 4.136643,-0.4242427 9.149683,0.086885 7.249193,0.7391236 9.232702,0.4367426 11.614465,-1.7706014 L 41.623349,6.6828364 40.489095,5.7643771 C 38.464954,4.1253256 34.328707,3.2490175 29.71616,3.4820025 26.195545,3.6598387 24.9768,3.9574887 22.315337,5.28947 c -3.598426,1.8009037 -8.133697,5.137144 -8.880609,6.532759 -0.416366,0.777985 -0.186213,0.723805 1.40864,-0.331618 1.048479,-0.693855 3.127672,-1.5177285 4.620431,-1.8308396 z"
     id="path851"
     inkscape:connector-curvature="0"
     sodipodi:nodetypes="ccsssccscsccscsccccssssccscccsssccscssccscssscscscccsscccssccsscsscssssccsscccsccc" />
  <text
     xml:space="preserve"
     style="font-style:italic;font-variant:normal;font-weight:normal;font-stretch:normal;font-size:27.56193542px;line-height:1.25;font-family:Arial;-inkscape-font-specification:'Arial, Italic';font-variant-ligatures:normal;font-variant-caps:normal;font-variant-numeric:normal;font-feature-settings:normal;text-align:start;letter-spacing:0px;word-spacing:0px;writing-mode:lr-tb;text-anchor:start;fill:#000000;fill-opacity:1;stroke:none;stroke-width:0.68904835"
     x="68.299133"
     y="36.512196"
     id="text927"><tspan
       sodipodi:role="line"
       id="tspan925"
       x="68.299133"
       y="36.512196"
       style="letter-spacing:0.6px;stroke-width:0.68904835">Semabok Inn</tspan></text>
  <text
     xml:space="preserve"
     style="font-style:normal;font-variant:normal;font-weight:normal;font-stretch:condensed;font-size:17.49593353px;line-height:1.25;font-family:Arial;-inkscape-font-specification:'Arial, Condensed';font-variant-ligatures:normal;font-variant-caps:normal;font-variant-numeric:normal;font-feature-settings:normal;text-align:start;letter-spacing:0px;word-spacing:0px;writing-mode:lr-tb;text-anchor:start;fill:#000000;fill-opacity:1;stroke:none;stroke-width:0.43740875"
     x="106.06512"
     y="60.530087"
     id="text931"
     transform="scale(1.0410941,0.96052796)"><tspan
       sodipodi:role="line"
       id="tspan929"
       x="106.06512"
       y="60.530087"
       style="font-style:normal;font-variant:normal;font-weight:normal;font-stretch:condensed;font-size:17.49593353px;font-family:Arial;-inkscape-font-specification:'Arial, Condensed';font-variant-ligatures:normal;font-variant-caps:normal;font-variant-numeric:normal;font-feature-settings:normal;text-align:start;letter-spacing:5px;writing-mode:lr-tb;text-anchor:start;stroke-width:0.43740875">MELAKA</tspan></text>
</svg>
