<?xml version="1.0" encoding="UTF-8" standalone="no"?>
<!-- Created with Inkscape (http://www.inkscape.org/) -->

<svg
   xmlns:dc="http://purl.org/dc/elements/1.1/"
   xmlns:cc="http://creativecommons.org/ns#"
   xmlns:rdf="http://www.w3.org/1999/02/22-rdf-syntax-ns#"
   xmlns:svg="http://www.w3.org/2000/svg"
   xmlns="http://www.w3.org/2000/svg"
   xmlns:sodipodi="http://sodipodi.sourceforge.net/DTD/sodipodi-0.dtd"
   xmlns:inkscape="http://www.inkscape.org/namespaces/inkscape"
   version="1.1"
   id="svg2"
   width="354"
   height="150"
   viewBox="0 0 353.99999 150"
   sodipodi:docname="hotel-logo.svg"
   inkscape:version="0.92.4 (5da689c313, 2019-01-14)"
   inkscape:export-filename="D:\Repository\semabokinn\SemabokInn.WebCore\wwwroot\images\Logo\hotel-logo-black.png"
   inkscape:export-xdpi="96"
   inkscape:export-ydpi="96">
  <metadata
     id="metadata8">
    <rdf:RDF>
      <cc:Work
         rdf:about="">
        <dc:format>image/svg+xml</dc:format>
        <dc:type
           rdf:resource="http://purl.org/dc/dcmitype/StillImage" />
        <dc:title />
      </cc:Work>
    </rdf:RDF>
  </metadata>
  <defs
     id="defs6" />
  <sodipodi:namedview
     pagecolor="#ffffff"
     bordercolor="#666666"
     borderopacity="1"
     objecttolerance="10"
     gridtolerance="10"
     guidetolerance="10"
     inkscape:pageopacity="0"
     inkscape:pageshadow="2"
     inkscape:window-width="1920"
     inkscape:window-height="1017"
     id="namedview4"
     showgrid="false"
     inkscape:zoom="1.673486"
     inkscape:cx="100.98977"
     inkscape:cy="145.46933"
     inkscape:window-x="1912"
     inkscape:window-y="-8"
     inkscape:window-maximized="1"
     inkscape:current-layer="svg2" />
  <path
     style="fill:#000000;stroke-width:1.02162302"
     d="m 54.423525,149.2564 c 0,-0.62854 1.264252,-1.42525 2.809452,-1.77048 8.49186,-1.89722 14.558134,-3.88615 14.558134,-4.77313 0,-0.57422 -0.986803,-0.69917 -2.298657,-0.29108 -1.264251,0.3933 -4.827159,0.88584 -7.917581,1.09455 l -5.618923,0.37945 5.108108,-0.91923 c 4.792229,-0.8624 17.269149,-6.06782 16.466901,-6.87007 -0.201332,-0.20133 -2.839442,0.66884 -5.86244,1.93378 -4.684538,1.9602 -7.382464,2.30522 -18.266623,2.33608 -11.704061,0.0331 -13.249678,-0.18861 -18.511809,-2.65593 -12.03405,-5.64262 -19.603238,-15.84039 -19.613034,-26.42409 -0.01251,-12.841676 10.60986,-22.283868 25.443608,-22.618066 17.069067,-0.384559 29.430648,10.759372 26.013196,23.450826 -1.380362,5.12618 -4.598085,7.99854 -10.422552,9.30384 -5.67799,1.27246 -10.207359,0.0659 -14.418264,-3.84112 -2.453784,-2.27668 -2.60866,-2.74222 -1.178569,-3.54255 1.041096,-0.58262 2.061058,-0.50685 2.773977,0.20613 1.419982,1.41998 7.373669,1.4651 9.970033,0.0757 1.081029,-0.57855 2.659868,-2.39464 3.50851,-4.03575 4.463467,-8.63135 -2.3611,-17.376304 -13.566621,-17.384227 -18.342091,-0.01292 -25.779496,20.899137 -12.353182,34.734037 5.656543,5.82868 11.872588,8.34382 22.120214,8.9503 7.43361,0.43995 9.385833,0.1584 16.239599,-2.34121 13.979854,-5.09874 23.013035,-17.24832 22.980479,-30.90863 C 92.348716,87.105708 84.525507,80.538124 60.553264,76.620949 33.343428,72.174743 27.452413,70.433837 21.801269,65.169005 17.942133,61.573656 15.653813,55.248047 15.574343,47.955752 l -0.07232,-6.640554 -2.614537,6.640554 C 0.58274201,79.207894 4.1812692,110.5811 22.381345,130.72642 c 2.003015,2.2171 7.788132,6.40381 12.855848,9.30384 6.549725,3.7481 8.793963,5.50786 7.76135,6.08574 -0.798997,0.44712 -3.1394,0.43256 -5.200918,-0.0323 C 20.667446,142.2202 5.619192,118.85722 2.2302305,90.863999 L 1.4263154,84.223448 1.8059513,92.396434 C 2.4839395,106.99273 7.7725391,121.70843 16.308583,132.75054 l 3.553946,4.5973 -4.227724,-4.53431 C 10.45623,127.25941 5.056293,116.28502 2.2213102,105.55307 -0.29329027,96.033907 -1.0689855,72.774207 1.0432822,70.229075 1.7208953,69.412595 2.5346896,66.940417 2.8516955,64.735345 3.7992116,58.144601 7.4189974,46.896977 11.065732,39.212237 20.801418,18.696224 40.007305,3.7093725 60.365812,0.74208938 c 6.766606,-0.98624459 8.965972,-0.89884394 14.9019,0.59222362 14.295353,3.5908718 23.675163,10.712636 33.348198,25.320115 8.10301,12.236531 11.2804,23.855507 11.27134,41.216417 -0.008,16.638952 -2.86939,28.638909 -10.41207,43.676605 -8.67492,17.29503 -21.134328,28.99497 -37.394721,35.11538 -7.549928,2.84178 -17.65687,4.3265 -17.65687,2.59378 z M 106.54801,96.087901 c 1.69162,-5.332115 3.60178,-13.975758 4.24479,-19.2081 2.70623,-22.020885 -4.35066,-44.855777 -17.774245,-57.514408 l -4.37068,-4.121639 -1.977066,2.706811 c -3.428409,4.693889 -6.384608,7.191164 -11.368999,9.604064 -6.241806,3.021591 -12.43803,3.566353 -23.047617,2.02632 -19.59561,-2.844416 -21.741329,-2.571978 -27.393558,3.47806 -3.273788,3.504199 -4.168325,12.988359 -1.679068,17.802036 3.663034,7.083532 11.277489,9.873372 36.845042,13.499549 8.419684,1.194142 17.384447,2.873539 19.921661,3.731993 7.717387,2.61114 14.711295,7.909681 17.707845,13.415364 3.208785,5.895576 4.998925,16.691075 3.697595,22.298359 -2.355917,10.15131 1.2027,4.86344 5.1943,-7.718409 z M 21.869693,25.713755 c 2.225919,-2.961807 7.013187,-7.716 10.638307,-10.564886 7.55887,-5.9402787 8.691796,-7.5583361 2.132214,-3.045224 -7.327838,5.041677 -17.1674,16.523339 -21.337017,24.897906 -5.0992506,10.241665 -4.8669047,11.382007 0.358481,1.759469 2.288466,-4.214199 5.982052,-10.085466 8.208015,-13.047265 z m 18.437694,-5.53878 c 4.406318,-0.924229 8.621558,-0.884202 19.069704,0.181075 15.108716,1.540477 19.242735,0.910256 24.206783,-3.690275 l 2.908299,-2.695323 -2.364017,-1.914247 C 79.909462,8.6401057 71.288716,6.8137101 61.675289,7.299296 54.337636,7.6699406 51.797546,8.2903009 46.250527,11.066408 38.750723,14.81984 29.298343,21.773209 27.741616,24.681941 c -0.867775,1.621471 -0.388098,1.50855 2.935879,-0.691156 2.185235,-1.446128 6.518691,-3.163239 9.629892,-3.815824 z"
     id="path851"
     inkscape:connector-curvature="0"
     sodipodi:nodetypes="ccsssccscsccscsccccssssccscccsssccscssccscssscscscccsscccssccsscsscssssccsscccsccc" />
  <text
     xml:space="preserve"
     style="font-style:italic;font-variant:normal;font-weight:normal;font-stretch:normal;font-size:35.06234741px;line-height:1.25;font-family:Arial;-inkscape-font-specification:'Arial, Italic';font-variant-ligatures:normal;font-variant-caps:normal;font-variant-numeric:normal;font-feature-settings:normal;text-align:start;letter-spacing:0px;word-spacing:0px;writing-mode:lr-tb;text-anchor:start;fill:#000000;fill-opacity:1;stroke:none;stroke-width:0.87655866"
     x="140.45317"
     y="87.866234"
     id="text927"><tspan
       sodipodi:role="line"
       id="tspan925"
       x="140.45317"
       y="87.866234"
       style="letter-spacing:0.76327771px;stroke-width:0.87655866">Semabok Inn</tspan></text>
  <text
     xml:space="preserve"
     style="font-style:normal;font-variant:normal;font-weight:normal;font-stretch:condensed;font-size:22.20013237px;line-height:1.25;font-family:Arial;-inkscape-font-specification:'Arial, Condensed';font-variant-ligatures:normal;font-variant-caps:normal;font-variant-numeric:normal;font-feature-settings:normal;text-align:start;letter-spacing:0px;word-spacing:0px;writing-mode:lr-tb;text-anchor:start;fill:#000000;fill-opacity:1;stroke:none;stroke-width:0.55501652"
     x="185.63499"
     y="119.76438"
     id="text931"
     transform="scale(1.0410941,0.96052796)"><tspan
       sodipodi:role="line"
       id="tspan929"
       x="185.63499"
       y="119.76438"
       style="font-style:normal;font-variant:normal;font-weight:normal;font-stretch:condensed;font-size:22.20013237px;font-family:Arial;-inkscape-font-specification:'Arial, Condensed';font-variant-ligatures:normal;font-variant-caps:normal;font-variant-numeric:normal;font-feature-settings:normal;text-align:start;letter-spacing:6.34436941px;writing-mode:lr-tb;text-anchor:start;stroke-width:0.55501652">MELAKA</tspan></text>
</svg>
